<?xml version="1.0" standalone="no"?>
<!DOCTYPE svg PUBLIC "-//W3C//DTD SVG 20010904//EN"
 "http://www.w3.org/TR/2001/REC-SVG-20010904/DTD/svg10.dtd">
<svg version="1.0" xmlns="http://www.w3.org/2000/svg"
 width="1563.000000pt" height="1563.000000pt" viewBox="0 0 1563.000000 1563.000000"
 preserveAspectRatio="xMidYMid meet">
<metadata>
Created by potrace 1.14, written by Peter Selinger 2001-2017
</metadata>
<g transform="translate(0.000000,1563.000000) scale(0.100000,-0.100000)"
fill="#000000" stroke="none">
<path d="M7439 14766 c-2 -2 -40 -7 -84 -10 -44 -3 -102 -8 -130 -11 -27 -2
-79 -7 -115 -10 -63 -6 -101 -10 -165 -20 -16 -2 -52 -7 -80 -10 -27 -3 -61
-8 -75 -11 -14 -2 -38 -7 -55 -9 -16 -3 -68 -13 -115 -21 -47 -9 -96 -18 -110
-20 -14 -3 -74 -16 -135 -30 -60 -14 -117 -27 -126 -29 -64 -14 -312 -83 -417
-116 -506 -160 -973 -371 -1428 -645 -196 -118 -383 -245 -598 -407 -406 -305
-867 -760 -1190 -1177 -114 -146 -211 -281 -320 -443 -51 -75 -72 -97 -145
-147 -527 -362 -868 -829 -1006 -1379 -27 -107 -29 -116 -45 -228 -6 -43 -13
-91 -16 -108 -3 -16 -7 -120 -9 -230 -4 -305 31 -507 132 -759 35 -86 42 -135
29 -203 -27 -139 -27 -934 -1 -1153 1 -14 6 -56 9 -95 4 -38 9 -83 11 -100 3
-16 7 -50 10 -75 6 -56 11 -88 24 -170 6 -36 13 -83 16 -105 3 -22 8 -51 11
-65 3 -14 8 -36 10 -50 29 -162 119 -528 172 -697 16 -51 25 -90 18 -86 -15 9
-79 56 -92 68 -6 6 -26 21 -44 35 -18 14 -44 35 -59 47 -14 13 -28 23 -31 23
-5 0 -61 -91 -125 -202 -17 -29 -149 -249 -172 -287 -12 -20 -39 -65 -60 -101
-92 -159 -254 -429 -295 -495 -21 -33 -41 -67 -45 -75 -4 -8 -38 -67 -76 -130
-76 -127 -99 -164 -134 -227 l-24 -42 83 -71 c86 -73 256 -192 388 -270 234
-138 645 -342 868 -431 12 -5 32 -13 45 -18 38 -15 147 -52 165 -56 9 -2 46
-13 82 -24 71 -22 181 -50 220 -58 14 -2 50 -10 80 -18 30 -8 71 -17 90 -20
19 -3 80 -15 135 -25 110 -21 128 -23 260 -40 50 -7 99 -13 110 -15 11 -2 28
-4 37 -4 9 -1 59 -44 110 -97 87 -90 224 -225 294 -290 90 -84 135 -125 194
-174 36 -30 67 -57 70 -60 9 -10 297 -234 362 -281 92 -68 316 -216 423 -280
209 -125 331 -193 525 -288 332 -164 653 -290 1045 -410 106 -32 357 -96 415
-106 19 -3 49 -10 65 -15 17 -5 46 -12 65 -15 19 -3 42 -8 50 -10 8 -2 32 -6
52 -9 21 -3 57 -10 80 -15 46 -10 98 -19 163 -27 22 -2 51 -7 65 -9 14 -2 52
-7 85 -10 33 -3 71 -8 85 -10 14 -2 61 -7 105 -11 44 -4 94 -8 110 -10 286
-28 861 -23 1175 11 19 2 64 6 100 10 85 8 192 22 310 42 52 9 104 17 115 19
33 4 316 63 360 75 22 6 49 13 60 15 138 26 571 163 790 249 251 98 612 266
795 370 41 23 92 52 112 63 181 102 460 285 643 422 335 251 572 461 862 764
79 82 98 96 125 97 40 1 53 3 236 34 190 33 352 74 548 140 168 56 210 73 384
158 179 86 403 225 522 323 306 254 552 634 673 1039 30 103 34 117 40 142 3
10 9 38 15 63 6 25 13 56 15 70 2 14 8 52 14 85 35 198 51 506 36 695 -17 202
-79 427 -168 610 -123 251 -280 446 -616 765 -10 10 -14 85 -17 366 -2 195 -5
374 -8 399 -2 25 -7 81 -11 125 -3 44 -8 94 -10 110 -2 17 -6 57 -10 90 -4 33
-8 71 -10 85 -2 14 -7 45 -10 70 -3 25 -10 70 -15 100 -5 30 -11 71 -14 90
-19 123 -73 380 -110 520 -31 115 -31 113 -6 98 10 -7 21 -10 23 -8 4 5 50 95
482 945 104 204 207 406 230 450 l41 81 -60 41 c-298 201 -399 257 -640 353
-340 136 -780 266 -1039 307 l-110 18 -51 65 c-56 71 -138 174 -163 205 -207
256 -559 615 -813 830 -52 44 -97 82 -100 85 -52 52 -380 293 -565 415 -327
215 -680 406 -1005 544 -69 29 -138 59 -155 66 -65 29 -248 95 -410 148 -322
105 -516 154 -920 231 -44 9 -89 17 -100 20 -11 2 -49 7 -85 11 -36 3 -78 9
-95 12 -16 2 -46 6 -65 8 -48 5 -143 14 -215 21 -33 3 -80 8 -105 11 -50 6
-845 14 -851 9z"/>
</g>
</svg>
